<svg width="28" height="29" viewBox="0 0 28 29" fill="none" xmlns="http://www.w3.org/2000/svg">
<path d="M23.2 24.0586H18.2975V17.3111H20.3975H20.837L20.8934 16.8752L21.2834 13.8577L21.3563 13.2936H20.7875H18.2975V11.8661C18.2975 11.4498 18.3615 11.2395 18.4579 11.1249C18.538 11.0296 18.7328 10.8961 19.2925 10.8961H20.89H20.8925H21.3925V10.3961V7.69859V7.26162L20.9595 7.2031C20.6563 7.16213 19.6861 7.07859 18.5625 7.07859C17.3085 7.07859 16.2009 7.46317 15.4054 8.24957C14.6083 9.0375 14.18 10.174 14.18 11.5686V13.2936H12.0725H11.5725V13.7936V16.8136V17.3136H12.0725H14.18V24.0586H4.8C4.63364 24.0586 4.5 23.925 4.5 23.7586V5.35859C4.5 5.19224 4.63364 5.05859 4.8 5.05859H23.2C23.3664 5.05859 23.5 5.19224 23.5 5.35859V23.7586C23.5 23.925 23.3664 24.0586 23.2 24.0586Z" fill="#D3A265" stroke="black"/>
</svg>
