<svg width="100" height="98" viewBox="0 0 100 98" fill="none" xmlns="http://www.w3.org/2000/svg">
<g filter="url(#filter0_d_9_356)">
<path d="M31.8188 47.0303H70.0289C77.5489 47.0303 83.6488 53.1303 83.6488 60.6503V73.2003H18.1989V60.6503C18.1989 53.1203 24.2988 47.0303 31.8188 47.0303Z" fill="white"/>
<path d="M88.7789 83.46H13.0688C10.2388 83.46 7.93884 81.16 7.93884 78.33V64.11C7.93884 61.28 10.2388 58.98 13.0688 58.98C15.8988 58.98 18.1989 61.28 18.1989 64.11V73.19H83.6488V64.11C83.6488 61.28 85.9489 58.98 88.7888 58.98C91.6189 58.98 93.9189 61.28 93.9189 64.11V78.32C93.9089 81.16 91.6189 83.46 88.7789 83.46Z" fill="#F5C58A"/>
<path d="M18.6589 83.46L14.9689 88.59H18.6589L24.4489 83.46H18.6589Z" fill="white"/>
<path d="M83.1888 83.46L86.8788 88.59H83.1888L77.3988 83.46H83.1888Z" fill="white"/>
<path d="M17.5988 20.7197H8.52876L6.09875 34.3197H20.0388L17.5988 20.7197Z" fill="white"/>
<path d="M59.0588 12.77H43.9188V27.91H59.0588V12.77Z" fill="#F5C58A"/>
<path d="M83.6489 1.16016H68.5089V16.3002H83.6489V1.16016Z" fill="white"/>
<path d="M36.6389 48.1701H70.0289C75.0189 48.1701 79.5289 51.1401 81.4889 55.7201C81.7389 56.3001 82.4089 56.5701 82.9989 56.3201C83.5789 56.0701 83.8489 55.4001 83.5989 54.8101C81.2689 49.3801 75.9289 45.8701 70.0289 45.8701H36.6389C36.0089 45.8701 35.4889 46.3801 35.4889 47.0201C35.4989 47.6601 36.0089 48.1701 36.6389 48.1701Z" fill="#333231"/>
<path d="M88.779 57.8297C85.319 57.8297 82.509 60.6397 82.499 64.1097V72.0497H52.069V56.8297C52.069 56.1997 51.559 55.6797 50.919 55.6797C50.279 55.6797 49.769 56.1897 49.769 56.8297V72.0497H27.199C26.569 72.0497 26.049 72.5597 26.049 73.1997C26.049 73.8297 26.559 74.3497 27.199 74.3497H83.639C84.269 74.3497 84.789 73.8397 84.789 73.1997V64.1197C84.859 61.9197 86.699 60.1897 88.899 60.2497C91.009 60.3097 92.699 62.0097 92.769 64.1197V78.3297C92.769 80.5297 90.979 82.3197 88.779 82.3197H73.749C73.119 82.3197 72.599 82.8297 72.599 83.4697C72.599 84.1097 73.109 84.6197 73.749 84.6197H76.959L82.429 89.4597C82.639 89.6497 82.909 89.7497 83.1889 89.7497H86.869C87.499 89.7497 88.019 89.2397 88.019 88.5997C88.019 88.3597 87.949 88.1297 87.809 87.9297L85.429 84.6097H88.779C92.249 84.6097 95.059 81.7997 95.059 78.3297V64.1197C95.049 60.6497 92.239 57.8397 88.779 57.8297ZM84.639 87.4497H83.619L80.409 84.6097H82.589L84.639 87.4497Z" fill="#333231"/>
<path d="M22.5088 72.0498C21.8788 72.0498 21.3588 72.5598 21.3588 73.1998C21.3588 73.8298 21.8688 74.3498 22.5088 74.3498H23.0788C23.7088 74.3498 24.2288 73.8398 24.2288 73.1998C24.2288 72.5698 23.7188 72.0498 23.0788 72.0498H22.5088Z" fill="#333231"/>
<path d="M64.8987 82.3099H13.0687C10.8687 82.3099 9.07869 80.5199 9.07869 78.3199V64.0999C9.02869 61.8999 10.7787 60.0799 12.9787 60.0299C15.1787 59.9799 16.9987 61.7299 17.0487 63.9299C17.0487 63.9899 17.0487 64.0399 17.0487 64.0999V73.1799C17.0487 73.8099 17.5587 74.3299 18.1987 74.3299C18.8287 74.3299 19.3487 73.8199 19.3487 73.1799V60.6299C19.3587 53.7399 24.9387 48.1599 31.8287 48.1599C32.4587 48.1599 32.9787 47.6499 32.9787 47.0099C32.9787 46.3799 32.4687 45.8599 31.8287 45.8599C24.1887 45.8699 17.8187 51.6999 17.1287 59.3099C16.2987 58.5999 15.2987 58.1299 14.2187 57.9299V38.2599C14.2187 37.6299 13.7087 37.1099 13.0687 37.1099C12.4387 37.1099 11.9187 37.6199 11.9187 38.2599V57.9299C8.9487 58.4799 6.7887 61.0799 6.7887 64.0999V78.3099C6.7887 81.7799 9.5987 84.5899 13.0687 84.5899H16.4187L14.0387 87.9099C13.6687 88.4199 13.7887 89.1399 14.2987 89.5099C14.4887 89.6499 14.7287 89.7199 14.9687 89.7199H18.6487C18.9287 89.7199 19.1987 89.6199 19.4087 89.4299L21.6287 87.4699C22.0987 87.0499 22.1387 86.3199 21.7087 85.8499C21.2887 85.3899 20.5787 85.3399 20.1087 85.7499L18.2187 87.4299H17.1987L19.2387 84.5899H64.8987C65.5287 84.5899 66.0487 84.0799 66.0487 83.4399C66.0387 82.8299 65.5287 82.3099 64.8987 82.3099Z" fill="#333231"/>
<path d="M69.1689 82.3101H68.6289C67.9989 82.3101 67.4789 82.8201 67.4789 83.4601C67.4789 84.0901 67.9889 84.6101 68.6289 84.6101H69.1689C69.7989 84.6101 70.3189 84.1001 70.3189 83.4601C70.3189 82.8301 69.8089 82.3101 69.1689 82.3101Z" fill="#333231"/>
<path d="M49.7789 52.0001V52.5801C49.7789 53.2101 50.2889 53.7301 50.9289 53.7301C51.5689 53.7301 52.0789 53.2201 52.0789 52.5801V52.0001C52.0789 51.3701 51.5689 50.8501 50.9289 50.8501C50.2889 50.8501 49.7789 51.3701 49.7789 52.0001Z" fill="#333231"/>
<path d="M20.9189 35.0598C21.1389 34.7998 21.2289 34.4598 21.1689 34.1198L18.7289 20.5098C18.6289 19.9598 18.1589 19.5698 17.5989 19.5698H8.52887C7.97887 19.5698 7.49887 19.9698 7.39887 20.5098L4.95886 34.1198C4.84886 34.7398 5.25887 35.3398 5.88887 35.4498C5.95887 35.4598 6.01887 35.4698 6.08887 35.4698H20.0389C20.3789 35.4698 20.6989 35.3198 20.9189 35.0598ZM7.46886 33.1798L9.49887 21.8598H16.6489L18.6789 33.1798H7.46886Z" fill="#333231"/>
<path d="M43.9189 29.0501H59.0589C59.6889 29.0501 60.2089 28.5401 60.2089 27.9001V17.2101C60.2089 16.5801 59.6989 16.0601 59.0589 16.0601C58.4289 16.0601 57.9089 16.5701 57.9089 17.2101V26.7501H45.0589V13.9001H59.0489C59.6789 13.9001 60.1989 13.3901 60.1989 12.7501C60.1989 12.1101 59.6889 11.6001 59.0489 11.6001H43.9089C43.2789 11.6001 42.7589 12.1101 42.7589 12.7501V27.8901C42.7789 28.5401 43.2889 29.0501 43.9189 29.0501Z" fill="#333231"/>
<path d="M68.5188 17.44H83.6588C84.2888 17.44 84.8088 16.93 84.8088 16.29V1.15C84.8088 0.520002 84.2988 0 83.6588 0H68.5188C67.8888 0 67.3688 0.510002 67.3688 1.15V16.29C67.3688 16.93 67.8788 17.44 68.5188 17.44ZM69.6588 2.3H82.4988V15.15H69.6488L69.6588 2.3Z" fill="#333231"/>
</g>
<defs>
<filter id="filter0_d_9_356" x="0.94104" y="0" width="98.1179" height="97.7495" filterUnits="userSpaceOnUse" color-interpolation-filters="sRGB">
<feFlood flood-opacity="0" result="BackgroundImageFix"/>
<feColorMatrix in="SourceAlpha" type="matrix" values="0 0 0 0 0 0 0 0 0 0 0 0 0 0 0 0 0 0 127 0" result="hardAlpha"/>
<feOffset dy="4"/>
<feGaussianBlur stdDeviation="2"/>
<feComposite in2="hardAlpha" operator="out"/>
<feColorMatrix type="matrix" values="0 0 0 0 0 0 0 0 0 0 0 0 0 0 0 0 0 0 0.25 0"/>
<feBlend mode="normal" in2="BackgroundImageFix" result="effect1_dropShadow_9_356"/>
<feBlend mode="normal" in="SourceGraphic" in2="effect1_dropShadow_9_356" result="shape"/>
</filter>
</defs>
</svg>
