<svg width="28" height="29" viewBox="0 0 28 29" fill="none" xmlns="http://www.w3.org/2000/svg">
<path d="M23.2 4.55859H4.8C4.3575 4.55859 4 4.91609 4 5.35859V23.7586C4 24.2011 4.3575 24.5586 4.8 24.5586H23.2C23.6425 24.5586 24 24.2011 24 23.7586V5.35859C24 4.91609 23.6425 4.55859 23.2 4.55859ZM9.9325 21.6011H6.965V12.0561H9.9325V21.6011ZM8.45 10.7511C8.10982 10.7511 7.77727 10.6502 7.49442 10.4612C7.21157 10.2722 6.99111 10.0036 6.86093 9.68931C6.73074 9.37502 6.69668 9.02919 6.76305 8.69554C6.82942 8.36189 6.99323 8.05542 7.23378 7.81487C7.47432 7.57432 7.7808 7.41051 8.11444 7.34414C8.44809 7.27778 8.79393 7.31184 9.10822 7.44202C9.4225 7.5722 9.69113 7.79266 9.88013 8.07551C10.0691 8.35837 10.17 8.69091 10.17 9.03109C10.1675 9.98109 9.3975 10.7511 8.45 10.7511ZM21.0425 21.6011H18.0775V16.9586C18.0775 15.8511 18.0575 14.4286 16.535 14.4286C14.9925 14.4286 14.755 15.6336 14.755 16.8786V21.6011H11.7925V12.0561H14.6375V13.3611H14.6775C15.0725 12.6111 16.04 11.8186 17.485 11.8186C20.49 11.8186 21.0425 13.7961 21.0425 16.3661V21.6011Z" fill="#D3A265"/>
</svg>
