<svg width="28" height="29" viewBox="0 0 28 29" fill="none" xmlns="http://www.w3.org/2000/svg">
<path d="M5 4.55859C4.44772 4.55859 4 5.00631 4 5.55859V23.5586C4 24.1109 4.44772 24.5586 5 24.5586H23C23.5523 24.5586 24 24.1109 24 23.5586V5.55859C24 5.00631 23.5523 4.55859 23 4.55859H5ZM20.2477 11.3543C20.0934 11.486 20 11.6767 20 11.8796V11.9336C20 16.0586 16.875 20.6836 11.25 20.6836C9.7681 20.6836 8.37583 20.3251 7.14909 19.6839C6.95545 19.5827 7.0315 19.3086 7.25 19.3086C7.79819 19.3086 8.31299 19.2418 8.8005 19.1144C9.63034 18.8974 9.36607 17.5283 8.81734 16.869C8.69317 16.7198 8.58323 16.5578 8.48938 16.3848C8.34084 16.111 8.5635 15.8086 8.875 15.8086C9.12106 15.8086 9.11844 15.5536 8.89602 15.4483C8.00934 15.0288 7.32851 14.1778 7.16344 13.161C7.13061 12.9587 7.34304 12.8189 7.53479 12.8911C7.78098 12.9837 7.93666 12.6375 7.77205 12.4324C7.35356 11.9108 7.125 11.2347 7.125 10.5586C7.125 10.4901 7.1265 10.4231 7.1295 10.3576C7.1605 9.68152 7.9358 9.5989 8.445 10.0447C9.72349 11.1641 11.3692 11.8837 13.1159 12.1146C13.5271 12.1689 13.75 11.8483 13.75 11.4336C13.75 9.68359 15.125 8.30859 16.875 8.30859C17.6351 8.30859 18.3009 8.59158 18.8723 9.07562C19.0369 9.21504 19.2519 9.29023 19.4622 9.24214C19.8248 9.15923 20.1602 9.04412 20.4846 8.89683C20.7112 8.79395 20.9514 9.00243 20.8242 9.2163C20.7648 9.31614 20.7005 9.41223 20.6319 9.50416C20.4922 9.69127 20.7254 10.0961 20.9482 10.0262C21.139 9.96634 21.2967 10.1813 21.1831 10.3459C20.9171 10.7313 20.6052 11.049 20.2477 11.3543Z" fill="#D3A265"/>
</svg>
