<svg width="12" height="13" viewBox="0 0 12 13" fill="none" xmlns="http://www.w3.org/2000/svg">
<path d="M6.28998 12.18C9.43998 12.18 12 9.63002 12 6.48002C12 3.33002 9.44996 0.77002 6.29996 0.77002C3.14996 0.77002 0.589966 3.32002 0.589966 6.47002C0.599966 9.62002 3.13998 12.17 6.28998 12.18ZM6.28998 3.57002C7.88998 3.57002 9.18995 4.86002 9.19995 6.47002C9.19995 8.07002 7.90996 9.37002 6.29996 9.38002C4.68996 9.39002 3.39995 8.09002 3.38995 6.48002C3.38995 6.48002 3.38995 6.48002 3.38995 6.47002C3.39995 4.87002 4.68998 3.58002 6.28998 3.57002Z" fill="#333231"/>
</svg>
